<svg width="553" height="558" viewBox="0 0 553 558" fill="none" xmlns="http://www.w3.org/2000/svg">
<path d="M478.12 296.297C478.12 230.816 425.038 177.734 359.557 177.734C294.077 177.734 240.994 230.816 240.994 296.297C240.994 361.777 294.077 414.859 359.557 414.859V489.27C252.981 489.27 166.584 402.873 166.584 296.297C166.584 189.72 252.981 103.323 359.557 103.323C466.133 103.323 552.531 189.72 552.531 296.297C552.531 402.873 466.133 489.27 359.557 489.27V414.859C425.038 414.859 478.12 361.777 478.12 296.297Z" fill="#5792A9"/>
<ellipse cx="59.674" cy="252.389" rx="53.4451" ry="53.3514" transform="rotate(7.15397 59.674 252.389)" fill="#5792A9"/>
<path d="M189.968 246.273L184.267 291.697L66.2128 276.88L71.9141 231.456L189.968 246.273Z" fill="#5792A9"/>
<path d="M199.021 397.795C215.668 381.148 242.658 381.148 259.306 397.795C275.953 414.442 275.953 441.432 259.306 458.08L189.832 527.554C173.184 544.201 146.194 544.201 129.547 527.554C112.9 510.906 112.9 483.916 129.547 467.269L199.021 397.795Z" fill="#5792A9"/>
<ellipse cx="160.257" cy="75.7186" rx="54.0027" ry="53.9079" transform="rotate(52.154 160.257 75.7186)" fill="#5792A9"/>
<path d="M256.712 163.525L220.561 191.613L147.562 97.6592L183.713 69.5713L256.712 163.525Z" fill="#5792A9"/>
<path d="M380.246 217.448C383.619 215.511 387.623 214.994 391.377 216.01C392.679 216.362 393.964 216.746 395.244 217.166C400.355 218.842 405.289 221.061 409.931 223.764C415.735 227.144 421.086 231.282 425.815 236.037C430.546 240.791 434.656 246.164 438.005 251.986C440.684 256.642 442.877 261.588 444.525 266.708C444.938 267.989 445.316 269.277 445.661 270.58C446.657 274.34 446.118 278.342 444.164 281.704C442.209 285.067 438.999 287.516 435.239 288.511C431.48 289.507 427.479 288.968 424.116 287.014C420.753 285.06 418.304 281.849 417.308 278.09C417.095 277.286 416.863 276.492 416.608 275.702C415.591 272.545 414.239 269.493 412.582 266.612C410.51 263.01 407.959 259.674 405.021 256.722C402.084 253.769 398.762 251.201 395.17 249.11C392.298 247.437 389.253 246.068 386.102 245.035C385.313 244.776 384.521 244.539 383.718 244.322C379.964 243.306 376.766 240.841 374.83 237.468C372.893 234.095 372.376 230.091 373.392 226.336C374.407 222.582 376.873 219.384 380.246 217.448Z" fill="#5792A9"/>
</svg>
