<svg width="2624" height="558" viewBox="0 0 2624 558" fill="none" xmlns="http://www.w3.org/2000/svg">
<path d="M688.237 429.457H615.288L718.296 165.785H791.245L894.077 429.457H821.128L804.077 382.523H705.288L688.237 429.457ZM727.437 321.879H782.104L754.683 246.645L727.437 321.879ZM920.613 429.457V165.785H990.222V429.457H920.613ZM1020.27 399.223L1052.97 346.137C1061.52 352.816 1069.49 358.266 1076.88 362.484C1084.38 366.703 1091.64 369.809 1098.67 371.801C1105.82 373.676 1113.09 374.613 1120.47 374.613C1127.73 374.613 1133.95 373.793 1139.1 372.152C1144.26 370.395 1148.18 367.934 1150.88 364.77C1153.69 361.488 1155.1 357.621 1155.1 353.168C1155.1 347.543 1153.11 342.738 1149.12 338.754C1145.14 334.77 1139.81 331.195 1133.13 328.031C1126.56 324.867 1119.36 321.703 1111.5 318.539C1103.07 315.141 1094.45 311.391 1085.66 307.289C1076.88 303.07 1068.79 297.973 1061.41 291.996C1054.02 286.02 1048.05 278.754 1043.48 270.199C1038.91 261.527 1036.62 250.98 1036.62 238.559C1036.62 222.152 1040.72 208.148 1048.93 196.547C1057.25 184.828 1068.56 175.922 1082.85 169.828C1097.27 163.617 1113.56 160.512 1131.72 160.512C1144.96 160.512 1158.97 162.27 1173.73 165.785C1188.5 169.301 1203.44 174.809 1218.56 182.309L1191.48 238.207C1183.05 233.051 1173.79 228.949 1163.71 225.902C1153.75 222.738 1144.61 221.156 1136.29 221.156C1130.55 221.156 1125.51 221.918 1121.17 223.441C1116.95 224.965 1113.67 227.191 1111.33 230.121C1108.98 232.934 1107.81 236.273 1107.81 240.141C1107.81 245.297 1109.81 249.867 1113.79 253.852C1117.77 257.719 1123.05 261.293 1129.61 264.574C1136.17 267.855 1143.32 271.195 1151.06 274.594C1159.49 278.227 1168.11 282.27 1176.9 286.723C1185.8 291.176 1193.95 296.449 1201.33 302.543C1208.83 308.637 1214.86 315.961 1219.43 324.516C1224 332.953 1226.29 343.09 1226.29 354.926C1226.29 370.746 1221.95 384.691 1213.28 396.762C1204.73 408.715 1192.72 418.031 1177.25 424.711C1161.9 431.391 1144.02 434.73 1123.63 434.73C1104.65 434.73 1086.37 431.684 1068.79 425.59C1051.21 419.496 1035.04 410.707 1020.27 399.223ZM1392.75 434.73C1372.59 434.73 1353.96 431.332 1336.85 424.535C1319.86 417.621 1305.03 408.012 1292.38 395.707C1279.84 383.285 1270.11 368.754 1263.2 352.113C1256.28 335.473 1252.83 317.309 1252.83 297.621C1252.83 277.934 1256.28 259.77 1263.2 243.129C1270.11 226.488 1279.84 212.016 1292.38 199.711C1305.03 187.289 1319.86 177.68 1336.85 170.883C1353.96 163.969 1372.59 160.512 1392.75 160.512C1413.02 160.512 1431.65 163.969 1448.65 170.883C1465.64 177.68 1480.35 187.289 1492.77 199.711C1505.31 212.016 1515.03 226.488 1521.95 243.129C1528.86 259.77 1532.32 277.934 1532.32 297.621C1532.32 317.309 1528.86 335.473 1521.95 352.113C1515.03 368.754 1505.31 383.285 1492.77 395.707C1480.35 408.012 1465.64 417.621 1448.65 424.535C1431.65 431.332 1413.02 434.73 1392.75 434.73ZM1392.75 374.086C1402.47 374.086 1411.5 372.152 1419.82 368.285C1428.14 364.418 1435.35 359.027 1441.44 352.113C1447.65 345.082 1452.45 336.938 1455.85 327.68C1459.37 318.422 1461.13 308.402 1461.13 297.621C1461.13 286.84 1459.37 276.82 1455.85 267.562C1452.45 258.305 1447.65 250.219 1441.44 243.305C1435.35 236.273 1428.14 230.824 1419.82 226.957C1411.5 223.09 1402.47 221.156 1392.75 221.156C1383.02 221.156 1373.94 223.09 1365.5 226.957C1357.18 230.824 1349.92 236.273 1343.7 243.305C1337.49 250.219 1332.63 258.305 1329.11 267.562C1325.72 276.82 1324.02 286.84 1324.02 297.621C1324.02 308.402 1325.72 318.422 1329.11 327.68C1332.63 336.938 1337.49 345.082 1343.7 352.113C1349.92 359.027 1357.18 364.418 1365.5 368.285C1373.94 372.152 1383.02 374.086 1392.75 374.086Z" fill="white"/>
<path d="M1802.31 272.67C1794.87 265.391 1786.15 259.848 1776.16 256.039C1766.17 252.146 1755.55 250.199 1744.3 250.199C1732.53 250.199 1721.7 252.273 1711.8 256.42C1701.98 260.482 1693.43 266.28 1686.15 273.812C1678.96 281.345 1673.37 290.274 1669.39 300.6C1665.42 310.84 1663.43 322.097 1663.43 334.369C1663.43 346.472 1665.37 357.644 1669.27 367.885C1673.16 378.126 1678.62 387.012 1685.64 394.545C1692.67 402.077 1700.96 407.917 1710.53 412.064C1720.17 416.212 1730.71 418.285 1742.14 418.285C1752.97 418.285 1763 416.423 1772.23 412.699C1781.45 408.975 1789.53 403.728 1796.47 396.957C1803.5 390.186 1809.08 382.146 1813.23 372.836C1817.38 363.441 1819.75 353.201 1820.34 342.113H1745.82V328.529H1835.45L1835.96 334.623C1835.96 349.096 1833.67 362.341 1829.1 374.359C1824.53 386.378 1818.06 396.788 1809.68 405.59C1801.38 414.392 1791.52 421.205 1780.1 426.029C1768.76 430.854 1756.27 433.266 1742.65 433.266C1728.77 433.266 1715.94 430.811 1704.18 425.902C1692.5 420.993 1682.3 414.096 1673.58 405.209C1664.95 396.322 1658.22 385.912 1653.4 373.979C1648.66 361.96 1646.29 348.884 1646.29 334.75C1646.29 320.447 1648.7 307.243 1653.52 295.141C1658.43 283.038 1665.29 272.501 1674.09 263.529C1682.89 254.558 1693.26 247.618 1705.19 242.709C1717.13 237.715 1730.12 235.219 1744.17 235.219C1757.46 235.219 1770.03 237.504 1781.87 242.074C1793.81 246.645 1804.39 253.204 1813.61 261.752L1802.31 272.67ZM2012.29 429.457H1993.63L1946.15 349.096H1890.54V429.457H1873.78V239.027H1943.86C1956.89 239.027 1968.15 241.27 1977.63 245.756C1987.11 250.242 1994.43 256.589 1999.59 264.799C2004.76 273.008 2007.34 282.784 2007.34 294.125C2007.34 307.921 2003.49 319.431 1995.78 328.656C1988.08 337.797 1977.42 343.848 1963.79 346.811L2012.29 429.457ZM1890.54 334.115H1942.97C1957.53 334.115 1969.04 330.561 1977.5 323.451C1985.97 316.257 1990.2 306.482 1990.2 294.125C1990.2 281.684 1985.97 271.908 1977.5 264.799C1969.12 257.605 1957.61 254.008 1942.97 254.008H1890.54V334.115ZM2138.73 433.266C2124.43 433.266 2111.26 430.811 2099.25 425.902C2087.23 420.993 2076.78 414.096 2067.89 405.209C2059.09 396.238 2052.23 385.743 2047.32 373.725C2042.5 361.622 2040.09 348.461 2040.09 334.242C2040.09 319.939 2042.5 306.778 2047.32 294.76C2052.23 282.657 2059.09 272.162 2067.89 263.275C2076.78 254.389 2087.23 247.491 2099.25 242.582C2111.26 237.673 2124.43 235.219 2138.73 235.219C2152.95 235.219 2166.02 237.673 2177.96 242.582C2189.98 247.491 2200.39 254.389 2209.19 263.275C2218.07 272.162 2224.93 282.657 2229.75 294.76C2234.66 306.778 2237.12 319.939 2237.12 334.242C2237.12 348.461 2234.66 361.622 2229.75 373.725C2224.93 385.743 2218.07 396.238 2209.19 405.209C2200.39 414.096 2189.98 420.993 2177.96 425.902C2166.02 430.811 2152.95 433.266 2138.73 433.266ZM2138.6 418.285C2150.37 418.285 2161.2 416.212 2171.1 412.064C2181 407.833 2189.6 401.951 2196.87 394.418C2204.24 386.801 2209.91 377.872 2213.89 367.631C2217.95 357.39 2219.98 346.26 2219.98 334.242C2219.98 322.224 2217.95 311.094 2213.89 300.854C2209.91 290.613 2204.24 281.726 2196.87 274.193C2189.6 266.576 2181 260.694 2171.1 256.547C2161.2 252.315 2150.37 250.199 2138.6 250.199C2126.92 250.199 2116.13 252.315 2106.23 256.547C2096.33 260.694 2087.69 266.576 2080.33 274.193C2073.05 281.726 2067.38 290.613 2063.32 300.854C2059.26 311.01 2057.23 322.139 2057.23 334.242C2057.23 346.345 2059.26 357.517 2063.32 367.758C2067.38 377.914 2073.05 386.801 2080.33 394.418C2087.69 401.951 2096.33 407.833 2106.23 412.064C2116.13 416.212 2126.92 418.285 2138.6 418.285ZM2432.62 239.027V344.398C2432.62 362.849 2429.45 378.718 2423.1 392.006C2416.84 405.294 2407.82 415.492 2396.06 422.602C2384.29 429.711 2370.2 433.266 2353.78 433.266C2337.36 433.266 2323.27 429.711 2311.51 422.602C2299.74 415.492 2290.69 405.294 2284.34 392.006C2278.08 378.718 2274.94 362.849 2274.94 344.398V239.027H2291.7V343.637C2291.7 359.21 2294.2 372.582 2299.19 383.754C2304.19 394.841 2311.3 403.389 2320.52 409.398C2329.83 415.323 2340.92 418.285 2353.78 418.285C2366.65 418.285 2377.69 415.323 2386.92 409.398C2396.23 403.389 2403.38 394.841 2408.37 383.754C2413.37 372.582 2415.86 359.21 2415.86 343.637V239.027H2432.62ZM2479.72 429.457V239.027H2535.96C2551.36 239.027 2564.52 241.397 2575.44 246.137C2586.36 250.792 2594.69 257.478 2600.45 266.195C2606.2 274.913 2609.08 285.365 2609.08 297.553C2609.08 309.656 2606.2 320.108 2600.45 328.91C2594.69 337.712 2586.36 344.483 2575.44 349.223C2564.52 353.962 2551.36 356.332 2535.96 356.332H2496.47V429.457H2479.72ZM2496.47 341.352H2534.69C2552.97 341.352 2567.06 337.458 2576.96 329.672C2586.95 321.885 2591.94 311.179 2591.94 297.553C2591.94 283.926 2586.95 273.262 2576.96 265.561C2567.06 257.859 2552.97 254.008 2534.69 254.008H2496.47V341.352Z" fill="white"/>
<path d="M478.12 296.297C478.12 230.816 425.038 177.734 359.557 177.734C294.077 177.734 240.994 230.816 240.994 296.297C240.994 361.777 294.077 414.859 359.557 414.859V489.27C252.981 489.27 166.584 402.873 166.584 296.297C166.584 189.72 252.981 103.323 359.557 103.323C466.133 103.323 552.531 189.72 552.531 296.297C552.531 402.873 466.133 489.27 359.557 489.27V414.859C425.038 414.859 478.12 361.777 478.12 296.297Z" fill="white"/>
<ellipse cx="59.674" cy="252.389" rx="53.4451" ry="53.3514" transform="rotate(7.15397 59.674 252.389)" fill="white"/>
<path d="M189.968 246.273L184.267 291.697L66.2128 276.88L71.9141 231.456L189.968 246.273Z" fill="white"/>
<path d="M199.021 397.795C215.668 381.148 242.658 381.148 259.306 397.795C275.953 414.442 275.953 441.432 259.306 458.08L189.832 527.554C173.184 544.201 146.194 544.201 129.547 527.554C112.9 510.906 112.9 483.916 129.547 467.269L199.021 397.795Z" fill="white"/>
<ellipse cx="160.256" cy="75.7186" rx="54.0027" ry="53.9079" transform="rotate(52.154 160.256 75.7186)" fill="white"/>
<path d="M256.712 163.525L220.561 191.613L147.562 97.6592L183.713 69.5713L256.712 163.525Z" fill="white"/>
<path d="M380.246 217.448C383.619 215.511 387.623 214.994 391.377 216.01C392.679 216.362 393.964 216.746 395.244 217.166C400.355 218.842 405.289 221.061 409.931 223.764C415.735 227.144 421.086 231.282 425.815 236.037C430.546 240.791 434.656 246.164 438.005 251.986C440.684 256.642 442.877 261.588 444.525 266.708C444.938 267.989 445.316 269.277 445.661 270.58C446.657 274.34 446.118 278.342 444.164 281.704C442.209 285.067 438.999 287.516 435.239 288.511C431.48 289.507 427.479 288.968 424.116 287.014C420.753 285.06 418.304 281.849 417.308 278.09C417.095 277.286 416.863 276.492 416.608 275.702C415.591 272.545 414.239 269.493 412.582 266.612C410.51 263.01 407.959 259.674 405.021 256.722C402.084 253.769 398.762 251.201 395.17 249.11C392.298 247.437 389.253 246.068 386.102 245.035C385.313 244.776 384.521 244.539 383.718 244.322C379.964 243.306 376.766 240.841 374.83 237.468C372.893 234.095 372.376 230.091 373.392 226.336C374.407 222.582 376.873 219.384 380.246 217.448Z" fill="white"/>
</svg>
